<svg width="10" height="10" viewBox="0 0 10 10" fill="none" xmlns="http://www.w3.org/2000/svg">
<path d="M5.00001 1.44183C5.16088 1.44183 5.32017 1.47352 5.4688 1.53508C5.61742 1.59664 5.75246 1.68687 5.86622 1.80062C5.97997 1.91438 6.0702 2.04942 6.13176 2.19804C6.19333 2.34667 6.22501 2.50596 6.22501 2.66683C6.22501 2.8277 6.19333 2.98699 6.13176 3.13562C6.0702 3.28424 5.97997 3.41928 5.86622 3.53304C5.75246 3.64679 5.61742 3.73702 5.4688 3.79858C5.32017 3.86014 5.16088 3.89183 5.00001 3.89183C4.67512 3.89183 4.36354 3.76277 4.1338 3.53304C3.90407 3.3033 3.77501 2.99172 3.77501 2.66683C3.77501 2.34194 3.90407 2.03036 4.1338 1.80062C4.36354 1.57089 4.67512 1.44183 5.00001 1.44183ZM5.00001 6.69183C6.73251 6.69183 8.55834 7.5435 8.55834 7.91683V8.5585H1.44168V7.91683C1.44168 7.5435 3.26751 6.69183 5.00001 6.69183ZM5.00001 0.333496C3.71084 0.333496 2.66668 1.37766 2.66668 2.66683C2.66668 3.956 3.71084 5.00016 5.00001 5.00016C6.28918 5.00016 7.33334 3.956 7.33334 2.66683C7.33334 1.37766 6.28918 0.333496 5.00001 0.333496ZM5.00001 5.5835C3.44251 5.5835 0.333344 6.36516 0.333344 7.91683V9.66683H9.66668V7.91683C9.66668 6.36516 6.55751 5.5835 5.00001 5.5835Z" fill="black"/>
</svg>
