<svg width="12" height="12" viewBox="0 0 12 12" fill="none" xmlns="http://www.w3.org/2000/svg">
<path d="M10.6667 8.04167C9.96667 8.04167 9.20833 7.925 8.56667 7.69167H8.39167C8.21667 7.69167 8.1 7.75 7.98333 7.86667L6.7 9.15C5.06667 8.275 3.66667 6.93333 2.85 5.3L4.13333 4.01667C4.30833 3.84167 4.36667 3.60833 4.25 3.43333C4.075 2.79167 3.95833 2.03333 3.95833 1.33333C3.95833 1.04167 3.66667 0.75 3.375 0.75H1.33333C1.04167 0.75 0.75 1.04167 0.75 1.33333C0.75 6.81667 5.18333 11.25 10.6667 11.25C10.9583 11.25 11.25 10.9583 11.25 10.6667V8.625C11.25 8.33333 10.9583 8.04167 10.6667 8.04167ZM1.91667 1.91667H2.79167C2.85 2.44167 2.96667 2.96667 3.08333 3.43333L2.38333 4.13333C2.15 3.43333 1.975 2.675 1.91667 1.91667ZM10.0833 10.0833C9.325 10.025 8.56667 9.85 7.86667 9.61667L8.56667 8.91667C9.03333 9.03333 9.55833 9.15 10.0833 9.15V10.0833Z" fill="black"/>
</svg>
